<svg width="21" height="21" viewBox="0 0 21 21" fill="none" xmlns="http://www.w3.org/2000/svg">
<path fill-rule="evenodd" clip-rule="evenodd" d="M17.9896 8.38791H20.2199V12.3319H17.9906C17.753 13.2498 17.3605 14.1047 16.833 14.8599L18.2479 16.2758L16.2759 18.2478L14.8611 16.8319C14.1038 17.3594 13.2509 17.7528 12.332 17.9895V20.2198H8.38803V17.9895C7.47008 17.7528 6.61621 17.3594 5.85996 16.8319L4.44408 18.2478L2.4721 16.2758L3.88798 14.8599C3.36048 14.1057 2.96707 13.2508 2.73043 12.3319H0.500122V8.38791H2.73043C2.96707 7.46897 3.35949 6.6151 3.88798 5.85984L2.4721 4.44396L4.44408 2.47198L5.85996 3.88786C6.61523 3.35937 7.46909 2.96694 8.38803 2.73031V0.5H12.332V2.72932C13.2509 2.96694 14.1038 3.35937 14.8611 3.88687L16.2759 2.47099L18.2479 4.44297L16.832 5.85984C17.3595 6.6151 17.753 7.46996 17.9896 8.38791ZM10.36 14.3038C12.5382 14.3038 14.304 12.538 14.304 10.3599C14.304 8.1817 12.5382 6.41593 10.36 6.41593C8.18182 6.41593 6.41606 8.1817 6.41606 10.3599C6.41606 12.538 8.18182 14.3038 10.36 14.3038Z" fill="#B6BAC0"/>
</svg>
