<svg width="38" height="38" viewBox="0 0 38 38" fill="none" xmlns="http://www.w3.org/2000/svg">
<path fill-rule="evenodd" clip-rule="evenodd" d="M26.9896 17.3879H29.2199V21.3319H26.9906C26.7529 22.2498 26.3605 23.1047 25.833 23.8599L27.2479 25.2758L25.2759 27.2478L23.861 25.8319C23.1038 26.3594 22.2509 26.7528 21.332 26.9895V29.2198H17.388V26.9895C16.4701 26.7528 15.6162 26.3594 14.8599 25.8319L13.4441 27.2478L11.4721 25.2758L12.888 23.8599C12.3605 23.1057 11.967 22.2508 11.7304 21.3319H9.5001V17.3879H11.7304C11.967 16.469 12.3595 15.6151 12.888 14.8598L11.4721 13.444L13.4441 11.472L14.8599 12.8879C15.6152 12.3594 16.4691 11.9669 17.388 11.7303V9.5H21.332V11.7293C22.2509 11.9669 23.1038 12.3594 23.861 12.8869L25.2759 11.471L27.2479 13.443L25.832 14.8598C26.3595 15.6151 26.7529 16.47 26.9896 17.3879ZM19.36 23.3038C21.5381 23.3038 23.3039 21.538 23.3039 19.3599C23.3039 17.1817 21.5381 15.4159 19.36 15.4159C17.1818 15.4159 15.416 17.1817 15.416 19.3599C15.416 21.538 17.1818 23.3038 19.36 23.3038Z" fill="#B6BAC0"/>
</svg>
