<svg width="24" height="28" viewBox="0 0 24 28" fill="none" xmlns="http://www.w3.org/2000/svg">
<path d="M18.9953 18C18.3283 17.9998 17.6682 18.1334 17.0538 18.393C16.4395 18.6526 15.8834 19.0329 15.4187 19.5113L9.65761 15.8075C10.1108 14.6451 10.1108 13.3549 9.65761 12.1925L15.4187 8.48876C16.284 9.37541 17.4477 9.90907 18.684 9.98629C19.9204 10.0635 21.1414 9.67878 22.1103 8.90669C23.0792 8.1346 23.727 7.03016 23.928 5.80749C24.1291 4.58483 23.8691 3.33104 23.1985 2.28922C22.5278 1.2474 21.4944 0.491764 20.2984 0.168817C19.1024 -0.15413 17.8292 -0.0213819 16.7255 0.541325C15.6218 1.10403 14.7664 2.05661 14.3249 3.21437C13.8835 4.37213 13.8876 5.65259 14.3364 6.80751L8.57539 10.5113C7.88165 9.79885 6.99127 9.30956 6.01808 9.10594C5.04489 8.90231 4.0331 8.9936 3.11205 9.36813C2.191 9.74266 1.40253 10.3834 0.847439 11.2085C0.292347 12.0336 -0.00415039 13.0055 -0.00415039 14C-0.00415039 14.9945 0.292347 15.9664 0.847439 16.7915C1.40253 17.6166 2.191 18.2573 3.11205 18.6319C4.0331 19.0064 5.04489 19.0977 6.01808 18.8941C6.99127 18.6904 7.88165 18.2012 8.57539 17.4888L14.3364 21.1925C13.9505 22.1882 13.8934 23.2813 14.1735 24.3117C14.4535 25.3422 15.0561 26.2559 15.8929 26.9191C16.7297 27.5822 17.7568 27.96 18.8238 27.997C19.8907 28.034 20.9415 27.7284 21.8223 27.1249C22.703 26.5213 23.3675 25.6516 23.7183 24.643C24.0691 23.6344 24.0879 22.54 23.7718 21.52C23.4558 20.5 22.8216 19.6079 21.9621 18.9745C21.1026 18.3411 20.0629 17.9996 18.9953 18ZM18.9953 2.00001C19.5884 2.00001 20.1683 2.17595 20.6615 2.5056C21.1548 2.83524 21.5392 3.30378 21.7662 3.85196C21.9932 4.40013 22.0526 5.00333 21.9369 5.58528C21.8211 6.16722 21.5355 6.70177 21.116 7.12133C20.6966 7.54088 20.1622 7.82661 19.5804 7.94236C18.9986 8.05812 18.3955 7.99871 17.8475 7.77165C17.2995 7.54458 16.831 7.16006 16.5015 6.66672C16.1719 6.17337 15.996 5.59335 15.996 5.00001C15.996 4.20436 16.312 3.4413 16.8745 2.87869C17.4369 2.31608 18.1998 2.00001 18.9953 2.00001ZM4.99879 17C4.4056 17 3.82573 16.8241 3.3325 16.4944C2.83928 16.1648 2.45486 15.6962 2.22785 15.1481C2.00085 14.5999 1.94145 13.9967 2.05718 13.4147C2.17291 12.8328 2.45856 12.2982 2.87801 11.8787C3.29746 11.4591 3.83187 11.1734 4.41367 11.0577C4.99546 10.9419 5.59851 11.0013 6.14655 11.2284C6.69459 11.4554 7.16301 11.8399 7.49257 12.3333C7.82213 12.8266 7.99803 13.4067 7.99803 14C7.99803 14.7957 7.68204 15.5587 7.11958 16.1213C6.55711 16.6839 5.79424 17 4.99879 17ZM18.9953 26C18.4021 26 17.8222 25.8241 17.329 25.4944C16.8357 25.1648 16.4513 24.6962 16.2243 24.1481C15.9973 23.5999 15.9379 22.9967 16.0536 22.4147C16.1694 21.8328 16.455 21.2982 16.8745 20.8787C17.2939 20.4591 17.8283 20.1734 18.4101 20.0576C18.9919 19.9419 19.595 20.0013 20.143 20.2284C20.6911 20.4554 21.1595 20.8399 21.489 21.3333C21.8186 21.8266 21.9945 22.4067 21.9945 23C21.9945 23.7957 21.6785 24.5587 21.116 25.1213C20.5536 25.6839 19.7907 26 18.9953 26Z" fill="#D8DADC"/>
</svg>
