<svg width="32" height="32" viewBox="0 0 32 32" fill="none" xmlns="http://www.w3.org/2000/svg">
<path d="M0.492324 15.7562C0.62163 15.8532 0.768772 15.9237 0.925347 15.9638C1.08192 16.0039 1.24487 16.0128 1.40487 15.9899C1.56488 15.9671 1.71882 15.913 1.8579 15.8306C1.99698 15.7483 2.11848 15.6394 2.21546 15.5101C2.96066 14.5167 3.92696 13.7103 5.03784 13.155C6.14873 12.5997 7.37367 12.3105 8.61567 12.3105C9.85768 12.3105 11.0826 12.5997 12.1935 13.155C13.3044 13.7103 14.2707 14.5167 15.0159 15.5101C15.212 15.7709 15.5037 15.9433 15.8268 15.9891C16.1499 16.035 16.4781 15.9506 16.739 15.7547C16.8321 15.6855 16.9145 15.6031 16.9836 15.5101C17.7288 14.5167 18.6952 13.7103 19.806 13.155C20.9169 12.5997 22.1419 12.3105 23.3839 12.3105C24.6259 12.3105 25.8508 12.5997 26.9617 13.155C28.0726 13.7103 29.0389 14.5167 29.7841 15.5101C29.9801 15.7712 30.2719 15.9437 30.5952 15.9897C30.9185 16.0357 31.2468 15.9515 31.508 15.7554C31.7691 15.5594 31.9417 15.2677 31.9877 14.9444C32.0337 14.6212 31.9494 14.2929 31.7534 14.0318C30.6639 12.5715 29.2111 11.4218 27.5394 10.6969C28.4559 9.86034 29.098 8.76628 29.3814 7.55831C29.6648 6.35034 29.5764 5.08491 29.1277 3.9281C28.6789 2.77129 27.8909 1.77714 26.8669 1.07613C25.843 0.37512 24.631 0 23.39 0C22.149 0 20.937 0.37512 19.9131 1.07613C18.8891 1.77714 18.1011 2.77129 17.6524 3.9281C17.2036 5.08491 17.1152 6.35034 17.3986 7.55831C17.6821 8.76628 18.3242 9.86034 19.2406 10.6969C18.0336 11.2188 16.9371 11.9658 16.0098 12.8982C15.0825 11.9658 13.9859 11.2188 12.7789 10.6969C13.6954 9.86034 14.3375 8.76628 14.6209 7.55831C14.9043 6.35034 14.8159 5.08491 14.3672 3.9281C13.9184 2.77129 13.1304 1.77714 12.1064 1.07613C11.0825 0.37512 9.87051 0 8.62952 0C7.38853 0 6.17654 0.37512 5.15259 1.07613C4.12865 1.77714 3.3406 2.77129 2.89187 3.9281C2.44314 5.08491 2.35469 6.35034 2.63814 7.55831C2.92158 8.76628 3.56368 9.86034 4.48015 10.6969C2.8011 11.4194 1.34112 12.5699 0.246162 14.0334C0.149183 14.1627 0.0786215 14.3098 0.0385075 14.4663C-0.0016066 14.6229 -0.0104879 14.7858 0.0123703 14.9458C0.0352286 15.1057 0.089379 15.2596 0.17173 15.3987C0.25408 15.5378 0.363018 15.6592 0.492324 15.7562ZM23.3854 2.46582C24.1157 2.46582 24.8296 2.68234 25.4368 3.08799C26.044 3.49365 26.5173 4.07023 26.7968 4.74481C27.0762 5.41939 27.1494 6.16168 27.0069 6.87782C26.8644 7.59395 26.5127 8.25176 25.9963 8.76807C25.4799 9.28437 24.822 9.63598 24.1058 9.77843C23.3895 9.92087 22.6471 9.84776 21.9724 9.56834C21.2977 9.28892 20.721 8.81574 20.3153 8.20863C19.9095 7.60152 19.693 6.88775 19.693 6.15759C19.693 5.17847 20.082 4.23945 20.7745 3.54711C21.4669 2.85477 22.4061 2.46582 23.3854 2.46582ZM8.61567 2.46582C9.34597 2.46582 10.0599 2.68234 10.6671 3.08799C11.2743 3.49365 11.7476 4.07023 12.027 4.74481C12.3065 5.41939 12.3796 6.16168 12.2372 6.87782C12.0947 7.59395 11.743 8.25176 11.2266 8.76807C10.7102 9.28437 10.0523 9.63598 9.33603 9.77843C8.61977 9.92087 7.87735 9.84776 7.20264 9.56834C6.52794 9.28892 5.95126 8.81574 5.54553 8.20863C5.1398 7.60152 4.92324 6.88775 4.92324 6.15759C4.92324 5.17847 5.31226 4.23945 6.00473 3.54711C6.6972 2.85477 7.63638 2.46582 8.61567 2.46582ZM27.5394 26.6946C28.4559 25.858 29.098 24.764 29.3814 23.556C29.6648 22.348 29.5764 21.0826 29.1277 19.9258C28.6789 18.769 27.8909 17.7748 26.8669 17.0738C25.843 16.3728 24.631 15.9977 23.39 15.9977C22.149 15.9977 20.937 16.3728 19.9131 17.0738C18.8891 17.7748 18.1011 18.769 17.6524 19.9258C17.2036 21.0826 17.1152 22.348 17.3986 23.556C17.6821 24.764 18.3242 25.858 19.2406 26.6946C18.0336 27.2165 16.9371 27.9635 16.0098 28.8958C15.0825 27.9635 13.9859 27.2165 12.7789 26.6946C13.6954 25.858 14.3375 24.764 14.6209 23.556C14.9043 22.348 14.8159 21.0826 14.3672 19.9258C13.9184 18.769 13.1304 17.7748 12.1064 17.0738C11.0825 16.3728 9.87051 15.9977 8.62952 15.9977C7.38853 15.9977 6.17654 16.3728 5.15259 17.0738C4.12865 17.7748 3.3406 18.769 2.89187 19.9258C2.44314 21.0826 2.35469 22.348 2.63814 23.556C2.92158 24.764 3.56368 25.858 4.48015 26.6946C2.8011 27.4171 1.34112 28.5676 0.246162 30.0311C0.149183 30.1603 0.0786215 30.3075 0.0385075 30.464C-0.0016066 30.6205 -0.0104879 30.7835 0.0123703 30.9434C0.0352286 31.1034 0.089379 31.2573 0.17173 31.3964C0.25408 31.5354 0.363018 31.6569 0.492324 31.7539C0.62163 31.8508 0.768772 31.9214 0.925347 31.9615C1.08192 32.0016 1.24487 32.0105 1.40487 31.9876C1.56488 31.9648 1.71882 31.9106 1.8579 31.8283C1.99698 31.746 2.11848 31.637 2.21546 31.5078C2.96066 30.5143 3.92696 29.708 5.03784 29.1527C6.14873 28.5973 7.37367 28.3082 8.61567 28.3082C9.85768 28.3082 11.0826 28.5973 12.1935 29.1527C13.3044 29.708 14.2707 30.5143 15.0159 31.5078C15.212 31.7686 15.5037 31.9409 15.8268 31.9868C16.1499 32.0327 16.4781 31.9483 16.739 31.7523C16.8321 31.6832 16.9145 31.6008 16.9836 31.5078C17.7288 30.5143 18.6952 29.708 19.806 29.1527C20.9169 28.5973 22.1419 28.3082 23.3839 28.3082C24.6259 28.3082 25.8508 28.5973 26.9617 29.1527C28.0726 29.708 29.0389 30.5143 29.7841 31.5078C29.9801 31.7689 30.2719 31.9414 30.5952 31.9874C30.9185 32.0334 31.2468 31.9491 31.508 31.7531C31.7691 31.5571 31.9417 31.2654 31.9877 30.9421C32.0337 30.6189 31.9494 30.2906 31.7534 30.0295C30.6639 28.5692 29.2111 27.4195 27.5394 26.6946ZM8.61567 18.4635C9.34597 18.4635 10.0599 18.68 10.6671 19.0857C11.2743 19.4913 11.7476 20.0679 12.027 20.7425C12.3065 21.4171 12.3796 22.1594 12.2372 22.8755C12.0947 23.5916 11.743 24.2494 11.2266 24.7657C10.7102 25.2821 10.0523 25.6337 9.33603 25.7761C8.61977 25.9186 7.87735 25.8454 7.20264 25.566C6.52794 25.2866 5.95126 24.8134 5.54553 24.2063C5.1398 23.5992 4.92324 22.8854 4.92324 22.1553C4.92324 21.1762 5.31226 20.2371 6.00473 19.5448C6.6972 18.8525 7.63638 18.4635 8.61567 18.4635ZM23.3854 18.4635C24.1157 18.4635 24.8296 18.68 25.4368 19.0857C26.044 19.4913 26.5173 20.0679 26.7968 20.7425C27.0762 21.4171 27.1494 22.1594 27.0069 22.8755C26.8644 23.5916 26.5127 24.2494 25.9963 24.7657C25.4799 25.2821 24.822 25.6337 24.1058 25.7761C23.3895 25.9186 22.6471 25.8454 21.9724 25.566C21.2977 25.2866 20.721 24.8134 20.3153 24.2063C19.9095 23.5992 19.693 22.8854 19.693 22.1553C19.693 21.1762 20.082 20.2371 20.7745 19.5448C21.4669 18.8525 22.4061 18.4635 23.3854 18.4635Z" fill="#D8DADC"/>
</svg>
